<svg id="visual" viewBox="0 0 350 500" width="350" height="500" xmlns="http://www.w3.org/2000/svg" xmlns:xlink="http://www.w3.org/1999/xlink" version="1.1"><g transform="translate(190.35103498369637 245.82330373265927)"><path d="M134 -170.5C155.6 -141.7 142.4 -82.2 134.5 -37C126.6 8.1 123.9 39.1 115.3 78.3C106.6 117.5 91.9 164.9 59.4 187.2C26.8 209.6 -23.7 206.7 -58.7 184.1C-93.6 161.4 -113.1 119 -134.4 79.1C-155.6 39.1 -178.8 1.8 -176.3 -34.3C-173.8 -70.5 -145.7 -105.3 -112.1 -132.1C-78.4 -158.8 -39.2 -177.4 8.5 -187.5C56.2 -197.7 112.5 -199.4 134 -170.5" fill="#64FFDA"></path></g></svg>